<svg xmlns="http://www.w3.org/2000/svg" xmlns:xlink="http://www.w3.org/1999/xlink" width="500" zoomAndPan="magnify" viewBox="0 0 375 374.999991" height="500" preserveAspectRatio="xMidYMid meet" version="1.0"><defs><g/><clipPath id="932f447143"><rect x="0" width="174" y="0" height="288"/></clipPath></defs><rect x="-37.5" width="450" fill="#ffffff" y="-37.499999" height="449.999989" fill-opacity="1"/><rect x="-37.5" width="450" fill="#ed1c24" y="-37.499999" height="449.999989" fill-opacity="1"/><g transform="matrix(1, 0, 0, 1, 110, 43)"><g clip-path="url(#932f447143)"><g fill="#ffffff" fill-opacity="1"><g transform="translate(0.961845, 254.602842)"><g><path d="M 85.0625 -28.1875 C 79.007812 -17.195312 72.238281 -9.75 64.75 -5.84375 C 57.257812 -1.945312 50.007812 0 43 0 C 36.46875 0 30.132812 -1.3125 24 -3.9375 C 17.875 -6.570312 12.816406 -10.4375 8.828125 -15.53125 C 4.847656 -20.625 2.859375 -26.914062 2.859375 -34.40625 C 2.859375 -36 2.9375 -37.671875 3.09375 -39.421875 C 3.257812 -41.171875 3.582031 -43.003906 4.0625 -44.921875 L 35.84375 -189.21875 C 37.113281 -195.4375 39.617188 -200.019531 43.359375 -202.96875 C 47.109375 -205.914062 51.132812 -207.390625 55.4375 -207.390625 C 60.375 -207.390625 64.867188 -205.59375 68.921875 -202 C 72.984375 -198.414062 75.015625 -193.28125 75.015625 -186.59375 C 75.015625 -184.6875 74.78125 -182.617188 74.3125 -180.390625 L 42.296875 -42.296875 C 41.816406 -40.378906 41.578125 -38.863281 41.578125 -37.75 C 41.578125 -35.195312 42.289062 -33.765625 43.71875 -33.453125 C 45.46875 -32.816406 47.335938 -33.53125 49.328125 -35.59375 C 51.328125 -37.664062 53.203125 -40.21875 54.953125 -43.25 C 60.679688 -53.601562 66.375 -63.953125 72.03125 -74.296875 C 77.6875 -84.648438 83.617188 -95.5625 89.828125 -107.03125 C 96.046875 -118.5 102.859375 -131.082031 110.265625 -144.78125 C 117.671875 -158.476562 125.910156 -173.769531 134.984375 -190.65625 C 137.691406 -196.550781 141.113281 -200.8125 145.25 -203.4375 C 149.394531 -206.070312 153.378906 -207.390625 157.203125 -207.390625 C 161.347656 -207.390625 164.851562 -206.113281 167.71875 -203.5625 C 170.59375 -201.007812 172.03125 -197.347656 172.03125 -192.578125 C 172.03125 -190.503906 171.75 -188.3125 171.1875 -186 C 170.625 -183.6875 169.550781 -181.175781 167.96875 -178.46875 Z M 85.0625 -28.1875 "/></g></g></g></g></g></svg>