<?xml version="1.0" encoding="utf-8"?>
<!-- Generator: Adobe Illustrator 25.0.1, SVG Export Plug-In . SVG Version: 6.00 Build 0)  -->
<svg version="1.0" id="katman_1" xmlns="http://www.w3.org/2000/svg" xmlns:xlink="http://www.w3.org/1999/xlink" x="0px" y="0px"
	 viewBox="0 0 174.6 105.2" style="enable-background:new 0 0 174.6 105.2;" xml:space="preserve">
<style type="text/css">
	.st0{fill:#FA0050;}
	.st1{fill-rule:evenodd;clip-rule:evenodd;fill:#FFFFFF;}
</style>
<rect class="st0" width="174.6" height="105.2"/>
<path class="st1" d="M110.1,27.6c0.9-1.3,1-3.1,0.1-4.5c-1.2-2.2-3.1-4.1-5.3-5.3c-2.9-1.6-5.2-1.4-6.9,1.8
	c-2.1,3.8-4.4,7.6-6.6,11.4l-6.2,10.7c-0.4-1.1-2.7-11.6-3.9-16.6c-0.3-1.3-0.9-2.5-1.8-3.5c-2.1-2.2-4.9-3.5-8-3.6
	c-3.7,0-4.7,1.1-4.4,4.2c0.1,1.1,0.3,2.3,0.5,3.4c1.3,6.6,3.3,13.1,6,19.3c1.1,2.5,2.4,4.9,4,7.2c0.6,0.6,0.7,1.6,0.2,2.3
	c-2,4.3-4.2,8.6-6,13c-1.8,4-2.6,8.3-2.5,12.7c0.1,1.7,0.9,3.3,2.3,4.3c2,1.6,4.6,2.2,7.1,1.7c2.3-0.2,4.3-1.8,4.9-4.1
	c3.1-13.7,8.5-26.9,15.9-38.8C103.3,37.8,106.7,32.8,110.1,27.6z"/>
</svg>
